<svg width="375" height="327" viewBox="0 0 375 327" fill="none" xmlns="http://www.w3.org/2000/svg">
<g clip-path="url(#clip0_36655_23850)">
<circle cx="773" cy="773" r="773" transform="matrix(1 0 0 -1 -590 327)" fill="#6100FF"/>
<path opacity="0.5" fill-rule="evenodd" clip-rule="evenodd" d="M775.643 184.404C696.439 278.244 591.134 329.923 479.123 329.923C367.112 329.923 261.806 278.244 182.601 184.404C103.396 90.5632 59.7773 -34.2023 59.7773 -166.911C59.7773 -299.619 103.396 -424.384 182.601 -518.225C261.806 -612.063 367.112 -663.742 479.123 -663.742C591.134 -663.742 696.439 -612.063 775.643 -518.225C854.848 -424.384 898.467 -299.619 898.467 -166.911C898.467 -34.2023 854.848 90.5632 775.643 184.404ZM776.901 -519.714C697.362 -613.95 591.607 -665.848 479.123 -665.848C366.638 -665.848 260.883 -613.95 181.344 -519.714C101.805 -425.475 58 -300.181 58 -166.91C58 -33.6393 101.805 91.6569 181.344 185.893C260.883 280.13 366.638 332.03 479.123 332.03C591.607 332.03 697.362 280.13 776.901 185.893C856.44 91.6569 900.245 -33.6393 900.245 -166.91C900.245 -300.181 856.44 -425.475 776.901 -519.714ZM769.849 176.9C692.338 268.906 589.225 319.643 479.504 319.763H479.111C369.542 319.759 266.495 269.26 188.934 177.536C111.28 85.7028 68.4558 -36.4634 68.3545 -166.459C68.2549 -296.454 110.885 -418.715 188.397 -510.721C265.908 -602.725 369.023 -653.462 478.743 -653.582H479.135C588.704 -653.582 691.751 -603.079 769.31 -511.357C846.966 -419.522 889.79 -297.356 889.892 -167.36C889.993 -37.365 847.361 84.8961 769.849 176.9ZM770.568 -512.847C692.665 -604.973 589.186 -655.689 479.134 -655.689H478.741C368.546 -655.567 264.987 -604.613 187.138 -512.209C109.292 -419.805 66.475 -297.015 66.5764 -166.457C66.6795 -35.9017 109.686 86.7953 187.677 179.027C265.581 271.155 369.06 321.869 479.113 321.869H479.504C589.7 321.746 693.259 270.793 771.107 178.388C848.954 85.9844 891.77 -36.8053 891.669 -167.363C891.566 -297.921 848.559 -420.616 770.568 -512.847ZM764.052 169.397C688.232 259.571 587.311 309.36 479.882 309.6H479.1C371.965 309.6 271.189 260.281 195.267 170.669C119.158 80.8394 77.1339 -38.7299 76.9294 -166.008C76.7268 -293.291 118.37 -413.045 194.19 -503.216C270.012 -593.388 370.932 -643.179 478.362 -643.421C478.625 -643.421 478.883 -643.421 479.146 -643.421C586.28 -643.421 687.055 -594.102 762.978 -504.491C839.086 -414.661 881.112 -295.092 881.314 -167.811C881.519 -40.5286 839.874 79.2259 764.052 169.397ZM764.232 -505.985C687.971 -595.996 586.762 -645.528 479.146 -645.528C478.888 -645.528 478.616 -645.528 478.359 -645.528C370.455 -645.286 269.088 -595.274 192.932 -504.704C116.778 -414.135 74.9476 -293.849 75.1521 -166.004C75.3565 -38.1617 117.569 81.9362 194.013 172.162C270.273 262.176 371.484 311.712 479.1 311.706H479.886C587.79 311.466 689.157 261.453 765.311 170.884C841.467 80.3143 883.297 -39.971 883.092 -167.816C882.888 -295.659 840.676 -415.757 764.232 -505.985ZM758.258 161.891C684.127 250.23 585.4 299.078 480.264 299.438C479.864 299.44 479.485 299.44 479.087 299.44C374.394 299.434 275.879 251.298 201.598 163.804C127.041 75.9767 85.8114 -40.9932 85.5056 -165.559C85.2016 -290.126 125.858 -407.378 199.986 -495.715C274.117 -584.05 372.844 -632.899 477.981 -633.259C478.38 -633.262 478.758 -633.262 479.157 -633.262C583.85 -633.262 682.367 -585.12 756.644 -497.625C831.203 -409.798 872.432 -292.828 872.738 -168.263C873.042 -43.6956 832.385 73.5566 758.258 161.891ZM757.899 -499.118C683.276 -587.019 584.337 -635.367 479.157 -635.367C478.769 -635.367 478.362 -635.367 477.975 -635.365H477.977C372.362 -635.003 273.191 -585.934 198.726 -497.199C124.262 -408.462 83.4225 -290.681 83.7283 -165.552C84.034 -40.4239 125.45 77.0748 200.345 165.3C274.969 253.199 373.907 301.553 479.088 301.547C479.475 301.547 479.882 301.547 480.268 301.545C585.882 301.182 685.054 252.114 759.519 163.379C833.981 74.6441 874.822 -43.1368 874.516 -168.269C874.211 -293.397 832.793 -410.895 757.899 -499.118ZM752.461 154.389C680.024 240.894 583.489 288.798 480.641 289.278C480.115 289.28 479.603 289.282 479.079 289.282C376.819 289.276 280.569 242.32 207.933 156.938C134.922 71.1162 94.4875 -43.2567 94.0822 -165.109C93.6751 -286.962 133.345 -401.707 205.784 -488.211C278.22 -574.714 374.755 -622.618 477.601 -623.1C478.122 -623.102 478.643 -623.104 479.164 -623.104C581.431 -623.104 677.671 -576.146 750.312 -490.758C823.323 -404.934 863.757 -290.563 864.162 -168.711C864.57 -46.8585 824.9 67.8873 752.461 154.389ZM751.563 -492.253C678.216 -578.473 580.95 -625.608 477.596 -625.206C374.271 -624.722 277.294 -576.597 204.521 -489.694C131.748 -402.792 91.8951 -287.515 92.304 -165.101C92.7111 -42.6837 133.332 72.2137 206.681 158.434C279.658 244.215 376.341 291.388 479.078 291.388C479.601 291.388 480.126 291.386 480.648 291.384C583.973 290.902 680.95 242.777 753.723 155.874C826.496 68.97 866.349 -46.3044 865.94 -168.719C865.533 -291.134 824.912 -406.034 751.563 -492.253ZM746.665 146.886C675.921 231.556 581.58 278.518 481.022 279.119C480.377 279.123 479.738 279.125 479.091 279.125C272.393 279.121 103.704 80.5165 102.658 -164.659C101.609 -410.598 269.639 -611.697 477.223 -612.937C477.868 -612.941 478.506 -612.943 479.153 -612.943C685.854 -612.943 854.541 -414.337 855.586 -169.162C856.093 -50.0224 817.411 62.2189 746.665 146.886ZM745.229 -485.39C673.893 -569.059 579.479 -615.05 479.175 -615.05C478.523 -615.05 477.867 -615.048 477.212 -615.044C268.649 -613.797 99.8284 -411.751 100.881 -164.648C101.932 81.6999 271.397 281.231 479.092 281.231C479.728 281.231 480.396 281.229 481.033 281.225C689.596 279.978 858.417 77.9296 857.364 -169.173C856.854 -288.872 817.03 -401.175 745.229 -485.39ZM740.871 139.384C671.819 222.219 579.67 268.236 481.403 268.958C480.625 268.964 479.866 268.964 479.087 268.964C277.297 268.952 112.487 75.2044 111.235 -164.208C109.979 -404.547 273.988 -601.287 476.843 -602.778C477.622 -602.785 478.381 -602.787 479.158 -602.787C680.95 -602.787 845.758 -409.025 847.011 -169.613C847.619 -53.1881 809.926 56.5488 740.871 139.384ZM479.157 -604.893C478.389 -604.893 477.601 -604.888 476.831 -604.884C272.999 -603.387 108.192 -405.694 109.456 -164.195C110.715 76.3907 276.304 271.071 479.086 271.071C479.855 271.071 480.641 271.071 481.413 271.065C580.154 270.34 672.747 224.1 742.135 140.865C811.525 57.6298 849.399 -52.6379 848.788 -169.625C847.529 -410.21 681.94 -604.893 479.157 -604.893ZM481.783 258.795C480.877 258.803 479.988 258.807 479.083 258.807C282.193 258.795 121.273 69.9025 119.813 -163.759C119.1 -277.469 155.808 -384.701 223.169 -465.702C290.534 -546.702 380.489 -591.773 476.464 -592.616C477.371 -592.624 478.262 -592.628 479.166 -592.628C676.055 -592.628 836.973 -403.723 838.435 -170.062C839.903 64.6725 679.908 257.057 481.783 258.795ZM476.45 -594.721C379.999 -593.876 289.599 -548.58 221.904 -467.179C154.209 -385.777 117.319 -278.015 118.036 -163.742C118.748 -49.4698 156.98 57.6342 225.685 137.841C293.742 217.284 383.615 260.919 479.049 260.915C479.961 260.915 480.884 260.911 481.798 260.902C680.902 259.156 841.687 65.8194 840.213 -170.077C838.739 -405.974 675.593 -596.385 476.45 -594.721ZM482.163 248.635C481.116 248.645 480.081 248.651 479.036 248.651C386.517 248.647 299.339 206.409 233.265 129.472C166.446 51.6647 129.199 -52.3114 128.386 -163.308C126.71 -392.439 282.686 -580.468 476.081 -582.454C477.121 -582.465 478.133 -582.471 479.169 -582.471C671.153 -582.471 828.19 -398.413 829.857 -170.512C831.532 58.6218 675.558 246.651 482.163 248.635ZM479.169 -584.576C478.139 -584.576 477.098 -584.571 476.066 -584.561C281.69 -582.564 124.925 -393.583 126.608 -163.289C127.424 -51.7306 164.86 52.7742 232.018 130.973C298.43 208.307 386.042 250.757 479.035 250.757C480.079 250.757 481.131 250.751 482.177 250.74C676.553 248.746 833.319 59.7629 831.635 -170.531C829.959 -399.601 672.141 -584.576 479.169 -584.576ZM723.482 116.874C659.505 194.207 573.935 237.391 482.542 238.473C481.379 238.488 480.227 238.494 479.068 238.494C291.98 238.488 138.838 59.2955 136.963 -162.858C135.078 -386.388 287.036 -570.059 475.702 -572.294C476.865 -572.308 478.015 -572.315 479.174 -572.315C666.262 -572.315 819.406 -393.114 821.281 -170.963C822.195 -62.6812 787.462 39.5424 723.482 116.874ZM475.685 -574.4C286.039 -572.155 133.292 -387.528 135.185 -162.837C136.104 -53.9927 172.743 47.913 238.353 124.109C303.122 199.328 388.468 240.601 479.026 240.601C480.201 240.601 481.381 240.594 482.56 240.58C574.428 239.491 660.442 196.084 724.754 118.35C789.066 40.6146 823.977 -62.1378 823.06 -170.984C821.163 -395.673 665.391 -576.578 475.685 -574.4ZM482.923 228.315C481.632 228.332 480.354 228.34 479.069 228.34C296.881 228.332 147.62 53.9882 145.54 -162.408C143.445 -380.334 291.384 -559.651 475.323 -562.132C476.629 -562.151 477.924 -562.16 479.229 -562.16C566.88 -562.16 649.525 -522.274 712.315 -449.558C776.039 -375.761 811.689 -276.979 812.706 -171.411C814.8 46.515 666.862 225.832 482.923 228.315ZM713.557 -451.065C650.427 -524.173 567.354 -564.266 479.228 -564.266C477.923 -564.266 476.609 -564.258 475.303 -564.239C290.384 -561.743 141.656 -381.472 143.761 -162.384C145.854 55.1777 295.894 230.446 479.066 230.446C480.35 230.446 481.657 230.436 482.942 230.421C667.861 227.925 816.588 47.6519 814.483 -171.436C813.461 -277.567 777.619 -376.874 713.557 -451.065ZM711.893 101.868C651.296 175.532 570.116 216.831 483.302 218.152C481.866 218.175 480.442 218.185 479.009 218.185C393.791 218.181 313.41 179.478 252.266 108.872C190.09 37.078 155.233 -59.1048 154.116 -161.958C153.002 -264.812 185.758 -362.024 246.354 -435.689C306.951 -509.353 388.131 -550.649 474.945 -551.972C476.381 -551.993 477.807 -552.006 479.238 -552.006C564.457 -552.006 644.837 -513.298 705.982 -442.692C768.157 -370.898 803.014 -274.716 804.129 -171.862C805.245 -69.0087 772.489 28.2062 711.893 101.868ZM805.906 -171.887C804.786 -275.305 769.739 -372.014 707.224 -444.2C644.709 -516.386 562.267 -555.416 474.921 -554.078C387.635 -552.749 306.008 -511.225 245.081 -437.159C184.154 -363.092 151.218 -265.349 152.338 -161.933C153.462 -58.5148 188.508 38.1945 251.023 110.38C312.506 181.378 393.318 220.294 479.009 220.292C480.443 220.292 481.887 220.281 483.325 220.258C570.612 218.931 652.238 177.407 713.165 103.341C774.093 29.2743 807.028 -68.4714 805.906 -171.887ZM483.682 207.99C482.127 208.018 480.605 208.03 479.057 208.03C306.677 208.011 165.185 43.3691 162.694 -161.51C161.474 -261.651 193.244 -356.357 252.15 -428.186C311.054 -500.016 390.044 -540.369 474.564 -541.812C476.12 -541.839 477.641 -541.852 479.19 -541.852C651.568 -541.852 793.062 -377.19 795.554 -172.311C798.068 34.4109 658.164 205.012 483.682 207.99ZM479.191 -543.958C477.643 -543.958 476.091 -543.945 474.539 -543.918C389.542 -542.466 310.111 -501.888 250.873 -429.654C191.638 -357.42 159.689 -262.181 160.916 -161.478C163.421 44.5616 305.693 210.137 479.055 210.137C480.603 210.137 482.155 210.124 483.707 210.097C659.168 207.102 799.86 35.5402 797.332 -172.343C794.825 -378.384 652.552 -543.958 479.191 -543.958ZM700.301 86.8629C643.088 156.86 566.292 196.269 484.061 197.83C482.365 197.864 480.68 197.878 478.987 197.878C398.639 197.876 322.789 161.525 264.93 95.1365C205.85 27.351 172.587 -63.6334 171.27 -161.059C169.951 -258.486 200.732 -350.688 257.947 -420.683C315.159 -490.678 391.954 -530.087 474.185 -531.65C475.863 -531.682 477.526 -531.699 479.197 -531.699C646.682 -531.699 784.281 -371.89 786.978 -172.762C788.297 -75.3339 757.514 16.8679 700.301 86.8629ZM474.157 -533.757C391.451 -532.185 314.213 -492.549 256.669 -422.149C199.125 -351.748 168.166 -259.015 169.492 -161.028C170.818 -63.0375 204.271 28.4734 263.693 96.6506C321.891 163.425 398.168 199.984 478.987 199.984C480.685 199.984 482.388 199.97 484.089 199.936C566.795 198.365 644.035 158.73 701.579 88.3286C759.121 17.9292 790.082 -74.8055 788.756 -172.793C786.014 -375.073 644.821 -536.996 474.157 -533.757ZM694.504 79.3604C638.983 147.521 564.379 185.986 484.44 187.669C482.637 187.707 480.84 187.726 479.042 187.726C316.45 187.724 182.744 32.7708 179.843 -160.61C176.913 -356.124 308.784 -518.016 473.805 -521.489C475.608 -521.527 477.405 -521.546 479.201 -521.546C641.794 -521.546 775.499 -366.591 778.4 -173.21C779.821 -78.4995 750.026 11.2 694.504 79.3604ZM473.774 -523.595C307.771 -520.101 175.118 -357.249 178.066 -160.572C180.985 33.9673 315.469 189.833 479.043 189.833C480.841 189.833 482.668 189.811 484.473 189.776C564.886 188.082 639.931 149.389 695.785 80.8223C751.636 12.2575 781.606 -77.9728 780.179 -173.248C777.229 -369.925 639.741 -527.102 473.774 -523.595ZM688.71 71.8578C634.878 138.186 562.469 175.705 484.82 177.508C407.098 179.299 333.577 145.179 277.595 81.4036C221.612 17.6265 189.942 -68.1616 188.421 -160.159C186.899 -252.157 215.706 -339.352 269.537 -405.677C323.369 -472.005 395.777 -509.525 473.426 -511.328C475.38 -511.374 477.328 -511.396 479.275 -511.396C554.764 -511.396 626.078 -477.397 680.651 -415.223C736.634 -351.446 768.304 -265.656 769.826 -173.661C771.348 -81.661 742.54 5.53204 688.71 71.8578ZM473.389 -513.434C395.266 -511.621 322.415 -473.869 268.255 -407.137C214.096 -340.405 185.111 -252.679 186.642 -160.119C188.174 -67.5588 220.038 18.7537 276.36 82.9205C331.273 145.48 403.011 179.682 478.968 179.682C480.924 179.682 482.894 179.659 484.855 179.615C562.979 177.799 635.829 140.05 689.989 73.3199C744.148 6.58551 773.133 -81.1404 771.602 -173.7C768.44 -364.775 634.647 -517.232 473.389 -513.434ZM682.912 64.3551C630.774 128.848 560.558 165.424 485.198 167.348C409.833 169.309 338.36 136.309 283.926 74.537C229.493 12.7651 198.621 -70.428 196.998 -159.71C195.375 -248.995 223.194 -333.682 275.333 -398.175C327.471 -462.668 397.687 -499.244 473.047 -501.167C475.13 -501.22 477.207 -501.247 479.283 -501.247C552.341 -501.247 621.389 -468.42 674.32 -408.357C728.752 -346.583 759.624 -263.394 761.247 -174.109C762.87 -84.8246 735.051 -0.136047 682.912 64.3551ZM675.547 -409.878C620.773 -472.04 548.876 -505.208 473.009 -503.274C397.174 -501.339 326.515 -464.531 274.047 -399.633C221.582 -334.733 193.585 -249.512 195.219 -159.667C196.853 -69.8199 227.918 13.8956 282.696 76.0593C335.963 136.506 405.439 169.533 478.959 169.533C481.046 169.533 483.144 169.508 485.234 169.453C561.069 167.518 631.728 130.712 684.196 65.8121C736.661 0.914429 764.658 -84.3092 763.024 -174.154C761.39 -264.001 730.325 -347.717 675.547 -409.878ZM677.116 56.8525C626.669 119.511 558.645 155.144 485.579 157.187C483.387 157.248 481.213 157.279 479.031 157.279C331.13 157.271 209.08 16.8494 205.574 -159.262C202.015 -337.968 321.832 -486.789 472.667 -491.006C623.443 -495.253 749.114 -353.266 752.672 -174.558C754.398 -87.9883 727.564 -5.80615 677.116 56.8525ZM472.625 -493.112C320.809 -488.868 200.213 -339.08 203.795 -159.211C207.326 18.0546 330.155 159.386 479.03 159.386C481.217 159.386 483.423 159.355 485.619 159.293C559.161 157.238 627.626 121.373 678.402 58.3083C729.177 -4.75897 756.185 -87.4761 754.448 -174.608C750.864 -354.477 624.423 -497.258 472.625 -493.112ZM671.318 49.3517C622.564 110.176 556.734 144.865 485.957 147.026C415.147 149.204 347.928 118.565 296.591 60.7995C245.253 3.03595 215.974 -74.9588 214.15 -158.813C212.324 -242.668 238.17 -322.345 286.926 -383.17C335.681 -443.994 401.511 -478.682 472.288 -480.846C474.608 -480.917 476.914 -480.951 479.219 -480.951C622.228 -480.951 740.386 -345.365 744.097 -175.007C745.921 -91.1521 720.075 -11.4724 671.318 49.3517ZM472.242 -482.952C400.99 -480.774 334.718 -445.853 285.635 -384.621C236.553 -323.39 210.533 -243.177 212.371 -158.758C214.21 -74.3414 243.684 4.17572 295.367 62.329C345.341 118.561 410.284 149.24 478.943 149.24C481.288 149.24 483.649 149.204 486.001 149.132C557.254 146.954 623.525 112.034 672.608 50.8011C721.69 -10.4295 747.71 -90.6443 745.874 -175.061C742.08 -349.327 619.322 -487.459 472.242 -482.952ZM665.524 41.8464C618.458 100.838 554.822 134.583 486.337 136.864C417.837 139.137 352.712 109.695 302.923 53.9345C253.133 -1.82593 224.651 -77.2215 222.724 -158.365C218.747 -325.866 330.532 -465.973 471.907 -470.685C474.358 -470.767 476.785 -470.807 479.221 -470.807C617.333 -470.807 731.611 -340.056 735.52 -175.456C737.447 -94.3163 712.586 -17.1431 665.524 41.8464ZM471.859 -472.791C329.501 -468.046 216.943 -326.967 220.947 -158.306C224.884 7.44427 339.94 139.093 479.022 139.093C481.466 139.093 483.927 139.053 486.386 138.971C555.347 136.673 619.424 102.694 666.815 43.2958C714.204 -16.1022 739.236 -93.8105 737.298 -175.514C733.291 -344.178 614.162 -477.495 471.859 -472.791ZM659.728 34.3461C614.353 91.503 552.91 124.303 486.713 126.702C420.554 129.111 357.497 100.823 309.254 47.0661C261.014 -6.69128 233.33 -79.4876 231.303 -157.916C229.274 -236.343 253.145 -311.012 298.518 -368.167C343.893 -425.321 405.336 -458.121 471.531 -460.524C608.113 -465.466 722.756 -337.804 726.943 -175.906C728.971 -97.4777 705.101 -22.8088 659.728 34.3461ZM471.475 -462.631C404.806 -460.211 342.922 -427.175 297.223 -369.61C251.525 -312.044 227.482 -236.84 229.525 -157.852C231.567 -78.8626 259.45 -5.54388 308.038 48.5989C354.716 100.619 415.131 128.951 478.928 128.951C481.532 128.951 484.153 128.902 486.77 128.807C553.439 126.389 615.323 93.3539 661.021 35.7883C706.72 -21.7772 730.763 -96.9811 728.72 -175.97C724.503 -339.03 609.15 -467.608 471.475 -462.631ZM653.93 26.8439C610.249 82.1662 550.999 114.022 487.093 116.543C423.187 119.092 362.279 91.9521 315.588 40.2C268.894 -11.5543 242.007 -81.7535 239.879 -157.467C237.747 -233.179 260.635 -305.343 304.315 -360.663C347.998 -415.984 407.249 -447.842 471.154 -450.363C473.884 -450.47 476.606 -450.525 479.324 -450.525C540.234 -450.525 597.961 -423.562 642.659 -374.019C689.351 -322.265 716.239 -252.066 718.367 -176.352C720.496 -100.641 697.612 -28.4764 653.93 26.8439ZM471.092 -452.467C406.713 -449.927 347.023 -417.835 303.015 -362.102C259.009 -306.371 235.956 -233.672 238.1 -157.396C242.436 -3.15857 349.718 118.81 479.016 118.81C481.715 118.81 484.435 118.757 487.153 118.65C620.051 113.403 724.57 -18.9664 720.144 -176.424C715.717 -333.879 604.008 -457.762 471.092 -452.467ZM648.134 19.3436C606.143 72.8293 549.086 103.742 487.47 106.383C484.638 106.505 481.828 106.566 479.013 106.566C355.568 106.558 252.955 -9.6814 248.455 -157.018C243.85 -307.712 343.584 -434.748 470.775 -440.204C597.956 -445.672 705.188 -327.495 709.791 -176.801C712.022 -103.802 690.125 -34.1441 648.134 19.3436ZM479.232 -442.49C476.405 -442.49 473.557 -442.431 470.709 -442.308C342.54 -436.811 242.038 -308.795 246.677 -156.943C251.214 -8.46014 354.606 108.672 479.013 108.672C481.84 108.672 484.688 108.611 487.536 108.489C549.624 105.824 607.122 74.6761 649.435 20.7755C691.751 -33.1209 713.815 -103.318 711.568 -176.877C707.031 -325.359 603.639 -442.49 479.232 -442.49ZM642.339 11.8398C602.038 63.4929 547.173 93.4595 487.849 96.2209C484.859 96.3599 481.887 96.4294 478.909 96.4294C422.856 96.4252 369.65 71.8024 328.252 26.4639C284.655 -21.282 259.362 -86.285 257.031 -156.571C254.701 -226.856 275.608 -294.01 315.909 -345.661C356.208 -397.314 411.073 -427.281 470.397 -430.042C473.357 -430.181 476.297 -430.248 479.234 -430.248C597.798 -430.248 696.519 -318.835 701.216 -177.25C703.547 -106.965 682.638 -39.8113 642.339 11.8398ZM470.327 -432.146C410.529 -429.363 355.225 -399.157 314.604 -347.091C273.981 -295.027 252.905 -227.336 255.253 -156.488C257.604 -85.6401 283.099 -20.119 327.045 28.0103C368.777 73.7131 422.401 98.5361 478.907 98.5361C481.902 98.5361 484.909 98.4666 487.918 98.3275C547.717 95.543 603.021 65.3363 643.642 13.2703C684.265 -38.7957 705.342 -106.486 702.994 -177.332C698.141 -323.582 593.828 -437.883 470.327 -432.146ZM488.227 86.0602C485.137 86.216 482.072 86.2939 479.009 86.2939C365.329 86.2855 270.494 -20.294 265.605 -156.122C260.584 -295.61 352.284 -413.933 470.017 -419.881C587.745 -425.814 687.617 -317.188 692.64 -177.699C697.66 -38.2083 605.961 80.1119 488.227 86.0602ZM469.94 -421.985C351.228 -415.986 258.766 -296.68 263.826 -156.031C268.758 -19.066 364.374 88.4003 479.008 88.4003C482.089 88.4003 485.193 88.3224 488.303 88.1665C607.014 82.1677 699.476 -37.1381 694.416 -177.789C689.353 -318.436 588.649 -427.98 469.94 -421.985ZM630.743 -3.16101C593.825 44.8209 543.346 72.9001 488.603 75.8995C433.859 78.8799 381.41 56.4645 340.912 12.7269C300.414 -31.0107 276.714 -90.8195 274.18 -155.675C268.952 -289.561 356.637 -403.525 469.639 -409.72C582.632 -415.902 678.832 -312.031 684.062 -178.145C686.596 -113.288 667.66 -51.1429 630.743 -3.16101ZM469.557 -411.824C355.574 -405.576 267.132 -290.622 272.407 -155.578C274.96 -90.16 298.864 -29.8351 339.715 14.2838C378.144 55.7866 427.24 78.2715 478.894 78.2715C482.147 78.2715 485.415 78.183 488.688 78.0019C543.903 74.9772 594.819 46.6578 632.057 -1.74316C669.295 -50.1421 688.394 -112.822 685.838 -178.242C680.565 -313.288 583.58 -418.054 469.557 -411.824ZM488.983 65.7411C485.639 65.939 482.323 66.038 479.01 66.038C375.088 66.0296 288.027 -30.9072 282.757 -155.228C277.321 -283.511 360.986 -393.118 469.262 -399.559C577.561 -406.029 670.051 -306.874 675.487 -178.591C680.924 -50.3085 597.259 59.2979 488.983 65.7411ZM469.172 -401.663C359.919 -395.163 275.498 -284.565 280.984 -155.123C286.3 -29.6711 374.14 68.144 479.011 68.144C482.346 68.144 485.706 68.045 489.075 67.8428C598.328 61.3428 682.749 -49.2556 677.263 -178.697C671.777 -308.141 578.468 -408.189 469.172 -401.663ZM619.148 -18.1644C585.612 26.1503 539.52 52.3402 489.36 55.5797C439.224 58.8214 390.976 38.7229 353.574 -1.00854C316.173 -40.7421 294.067 -95.3525 291.333 -154.782C285.689 -277.46 365.338 -382.711 468.885 -389.4C572.396 -396.058 661.265 -301.721 666.911 -179.038C669.645 -119.611 652.683 -62.4771 619.148 -18.1644ZM468.788 -391.502C364.263 -384.75 283.862 -278.505 289.56 -154.666C292.321 -94.6764 314.634 -39.5478 352.389 0.558533C387.51 37.8677 432.078 58.0251 478.886 58.023C482.397 58.023 485.924 57.9093 489.456 57.6818C540.092 54.4107 586.621 27.9744 620.472 -16.7574C654.325 -61.4893 671.447 -119.164 668.686 -179.154C662.988 -302.993 573.328 -398.279 468.788 -391.502ZM489.739 45.4189C486.138 45.6717 482.57 45.7939 479.01 45.7939C384.835 45.7833 305.55 -41.5234 299.911 -154.336C297.077 -211.05 313.052 -265.677 344.896 -308.158C376.738 -350.636 420.64 -375.878 468.509 -379.239C567.334 -386.152 652.483 -296.562 658.338 -179.485C664.19 -62.4075 588.557 38.4849 489.739 45.4189ZM468.406 -381.341C420.06 -377.948 375.725 -352.453 343.567 -309.556C311.406 -266.654 295.273 -211.486 298.137 -154.209C303.831 -40.2738 383.895 47.9008 479.009 47.9008C482.598 47.9008 486.213 47.7765 489.843 47.5216C589.64 40.5181 666.022 -61.3728 660.112 -179.611C654.199 -297.849 568.157 -388.349 468.406 -381.341ZM607.551 -33.1628C577.398 7.48059 535.69 31.7791 490.113 35.2566C486.385 35.541 482.69 35.6821 479.007 35.6821C389.697 35.6757 314.305 -46.8265 308.485 -153.888C302.424 -265.363 374.043 -361.898 468.13 -369.076C562.231 -376.282 643.698 -291.405 649.758 -179.931C652.695 -125.929 637.705 -73.8063 607.551 -33.1628ZM468.017 -371.181C372.949 -363.925 300.588 -266.387 306.709 -153.752C312.592 -45.574 388.762 37.7876 479.005 37.7876C482.721 37.7876 486.467 37.6443 490.227 37.3579C536.279 33.8467 578.42 9.2934 608.887 -31.7734C639.355 -72.8403 654.498 -125.504 651.533 -180.069C645.41 -292.699 563.147 -378.437 468.017 -371.181ZM601.755 -40.6644C573.292 -1.85559 533.777 21.4992 490.489 25.0947C401.131 32.5532 323.331 -47.571 317.062 -153.443C310.794 -259.317 378.397 -351.493 467.756 -358.918C471.607 -359.238 475.433 -359.396 479.236 -359.396C563.685 -359.396 635.185 -281.688 641.183 -180.378C644.22 -129.09 630.218 -79.4733 601.755 -40.6644ZM467.632 -361.02C377.295 -353.513 308.952 -260.328 315.288 -153.295C321.352 -50.8696 393.626 27.6897 479.008 27.6791C482.847 27.6791 486.726 27.5212 490.614 27.1968C534.375 23.5613 574.324 -0.0484009 603.096 -39.2806C631.871 -78.515 646.028 -128.677 642.958 -180.526C636.622 -287.556 557.984 -368.521 467.632 -361.02ZM490.864 14.9369C406.194 22.6292 332.113 -52.7306 325.637 -152.997C322.501 -201.571 335.518 -248.683 362.29 -285.657C389.062 -322.632 426.383 -345.041 467.379 -348.756C552.019 -356.44 626.132 -281.091 632.609 -180.822C639.083 -80.5508 575.497 7.26569 490.864 14.9369ZM467.245 -350.857C425.774 -347.1 388.022 -324.431 360.939 -287.03C333.859 -249.628 320.693 -201.972 323.864 -152.838C330.108 -56.1713 398.495 17.5856 479.014 17.5814C482.98 17.5814 486.984 17.4023 491.001 17.038C576.61 9.27618 640.931 -79.5535 634.382 -180.983C627.832 -282.413 552.842 -358.6 467.245 -350.857ZM590.156 -55.6609C565.075 -20.5213 529.946 0.942017 491.237 4.77765C452.547 8.60272 414.882 -5.64227 385.225 -35.3582C355.566 -65.074 337.45 -106.695 334.213 -152.556C330.977 -198.414 343.007 -243.022 368.089 -278.159C393.17 -313.299 428.299 -334.762 467.008 -338.596C505.698 -342.425 543.363 -328.176 573.02 -298.462C602.679 -268.746 620.795 -227.123 624.032 -181.265C627.268 -135.406 615.238 -90.7985 590.156 -55.6609ZM574.168 -300.069C544.148 -330.149 506.036 -344.582 466.858 -340.693C427.677 -336.814 392.119 -315.089 366.73 -279.52C341.343 -243.952 329.165 -198.799 332.442 -152.38C335.718 -105.959 354.054 -63.8289 384.076 -33.7485C410.889 -6.88251 444.156 7.49725 478.874 7.49725C483.027 7.49725 487.202 7.29089 491.387 6.87592C530.566 2.99396 566.126 -18.7305 591.514 -54.2999C616.901 -89.8671 629.079 -135.02 625.803 -181.439C622.526 -227.86 604.19 -269.991 574.168 -300.069ZM584.357 -63.1571C560.966 -29.8542 528.03 -9.33447 491.612 -5.383C455.193 -1.42944 419.66 -14.516 391.552 -42.2309C363.443 -69.9437 346.123 -108.967 342.788 -152.111C335.901 -241.179 391.456 -320.277 466.632 -328.437C541.783 -336.612 608.568 -270.774 615.456 -181.709C618.793 -138.563 607.749 -96.4601 584.357 -63.1571ZM466.469 -330.535C390.32 -322.267 334.043 -242.141 341.018 -151.919C344.399 -108.213 361.941 -68.684 390.416 -40.611C415.559 -15.8218 446.568 -2.58575 478.878 -2.58575C483.157 -2.58575 487.461 -2.81952 491.776 -3.28503C528.663 -7.29126 562.029 -28.0742 585.724 -61.8111C609.419 -95.5458 620.606 -138.195 617.229 -181.901C610.249 -272.122 542.637 -338.787 466.469 -330.535ZM578.558 -70.6559C556.858 -39.1854 526.113 -19.6136 491.986 -15.5442C421.532 -7.15259 358.457 -68.2063 351.363 -151.671C347.927 -192.102 357.986 -231.698 379.687 -263.165C401.387 -294.633 432.133 -314.205 466.259 -318.276C536.721 -326.683 599.787 -265.612 606.882 -182.149C610.317 -141.719 600.26 -102.122 578.558 -70.6559ZM466.082 -320.372C431.484 -316.244 400.312 -296.402 378.311 -264.498C356.309 -232.596 346.112 -192.452 349.596 -151.458C356.341 -72.0672 413.059 -12.6649 479.026 -12.6671C483.369 -12.6671 487.751 -12.924 492.164 -13.4506C526.762 -17.5768 557.934 -37.4183 579.934 -69.3227C601.936 -101.225 612.134 -141.371 608.649 -182.362C601.458 -266.979 537.523 -328.905 466.082 -320.372ZM492.357 -25.7056C426.649 -17.057 367.239 -73.3693 359.939 -151.229C352.641 -229.091 400.171 -299.472 465.889 -308.118C470.364 -308.706 474.808 -308.994 479.212 -308.994C539.455 -308.994 591.504 -255.151 598.306 -182.592C605.603 -104.73 558.076 -34.3499 492.357 -25.7056ZM465.691 -310.211C399.001 -301.436 350.768 -230.013 358.172 -150.997C365.076 -77.3582 417.892 -22.7141 479.031 -22.7225C483.497 -22.7225 488.016 -23.0153 492.557 -23.6114C559.246 -32.3842 607.478 -103.807 600.073 -182.824C592.669 -261.838 532.429 -318.969 465.691 -310.211ZM492.727 -35.8615C488.126 -35.1917 483.566 -34.8673 479.043 -34.8673C423.615 -34.8715 375.452 -83.9824 368.514 -150.79C364.88 -185.793 372.969 -220.379 391.291 -248.176C409.611 -275.971 435.972 -293.651 465.518 -297.957C526.502 -306.843 582.227 -255.289 589.731 -183.03C597.234 -110.77 553.718 -44.7522 492.727 -35.8615ZM465.298 -300.048C435.284 -295.673 408.501 -277.712 389.889 -249.471C371.274 -221.232 363.057 -186.094 366.749 -150.533C373.796 -82.6551 422.725 -32.7607 479.041 -32.7607C483.633 -32.7607 488.273 -33.0914 492.945 -33.7717C554.909 -42.8015 599.117 -109.875 591.494 -183.286C583.873 -256.698 527.278 -309.08 465.298 -300.048ZM561.154 -93.1365C544.521 -67.1761 520.352 -50.4435 493.098 -46.0203C465.837 -41.5991 438.768 -50.016 416.856 -69.7205C394.945 -89.4272 380.822 -118.063 377.089 -150.352C373.357 -182.644 380.461 -214.723 397.093 -240.684C413.726 -266.644 437.895 -283.375 465.149 -287.798C469.894 -288.567 474.632 -288.948 479.337 -288.948C501.672 -288.948 523.294 -280.373 541.39 -264.098C563.302 -244.393 577.424 -215.758 581.158 -183.468C584.889 -151.176 577.785 -119.097 561.154 -93.1365ZM542.465 -265.776C520.175 -285.822 492.631 -294.382 464.908 -289.885C437.181 -285.386 412.596 -268.365 395.675 -241.956C378.757 -215.549 371.53 -182.916 375.328 -150.066C379.125 -117.22 393.492 -88.0897 415.78 -68.0438C434.193 -51.4861 456.184 -42.7639 478.905 -42.7659C483.69 -42.7659 488.514 -43.1514 493.337 -43.9349C521.064 -48.4341 545.651 -65.4552 562.568 -91.8641C579.488 -118.271 586.714 -150.904 582.917 -183.754C579.12 -216.6 564.753 -245.73 542.465 -265.776ZM555.351 -100.629C540.407 -76.5055 518.428 -60.7187 493.464 -56.1816C468.504 -51.6489 443.538 -58.8946 423.179 -76.5981C402.817 -94.3018 389.496 -120.342 385.665 -149.919C381.834 -179.496 387.955 -209.071 402.897 -233.192C417.84 -257.316 439.819 -273.103 464.783 -277.64C469.622 -278.52 474.426 -278.946 479.18 -278.946C525.035 -278.946 565.417 -239.225 572.584 -183.902C576.415 -154.325 570.294 -124.751 555.351 -100.629ZM464.51 -279.722C412.01 -270.176 375.849 -211.804 383.906 -149.598C391.208 -93.2331 432.343 -52.7687 479.065 -52.7687C483.904 -52.7687 488.806 -53.2026 493.736 -54.0977C546.238 -63.6436 582.398 -122.018 574.341 -184.222C566.281 -246.425 517.02 -289.257 464.51 -279.722ZM549.544 -108.114C536.288 -85.8273 516.501 -70.9926 493.827 -66.3376C471.151 -61.6848 448.308 -67.772 429.497 -83.4767C410.688 -99.1814 398.165 -122.625 394.236 -149.489C390.309 -176.35 395.445 -203.419 408.7 -225.706C421.956 -247.993 441.743 -262.827 464.417 -267.482C469.373 -268.497 474.298 -268.988 479.166 -268.988C520.267 -268.988 556.758 -233.916 564.01 -184.331C567.937 -157.469 562.799 -130.401 549.544 -108.114ZM464.115 -269.557C440.972 -264.807 420.778 -249.665 407.247 -226.918C393.72 -204.17 388.477 -176.546 392.488 -149.128C396.495 -121.71 409.275 -97.7824 428.474 -81.7534C443.466 -69.2355 460.967 -62.7059 478.935 -62.7081C483.977 -62.7081 489.062 -63.222 494.13 -64.2625C517.274 -69.0123 537.468 -84.1545 550.999 -106.901C564.528 -129.647 569.771 -157.273 565.76 -184.691C557.484 -241.29 511.887 -279.359 464.115 -269.557ZM494.191 -76.4948C489.122 -75.3089 484.077 -74.7402 479.097 -74.7402C442.718 -74.7444 410.119 -105.21 402.808 -149.059C394.502 -198.916 421.977 -247.483 464.055 -257.326C506.154 -267.171 547.129 -234.614 555.438 -184.761C563.744 -134.905 536.27 -86.3376 494.191 -76.4948ZM463.711 -259.392C420.67 -249.323 392.566 -199.646 401.064 -148.652C408.538 -103.796 441.883 -72.6331 479.094 -72.6331C484.188 -72.6331 489.352 -73.2166 494.533 -74.4277C537.573 -84.4959 565.677 -134.173 557.179 -185.167C548.683 -236.161 506.748 -269.454 463.711 -259.392ZM537.93 -123.078C528.047 -104.466 512.641 -91.5294 494.544 -86.649C457.203 -76.5767 419.885 -104.382 411.378 -148.638C407.259 -170.076 410.433 -192.133 420.317 -210.743C430.198 -229.354 445.605 -242.291 463.701 -247.171C468.871 -248.566 474.037 -249.233 479.131 -249.233C510.827 -249.233 539.537 -223.311 546.865 -185.182C550.986 -163.744 547.813 -141.687 537.93 -123.078ZM463.306 -249.225C444.748 -244.22 428.947 -230.951 418.811 -211.865C408.676 -192.778 405.421 -170.158 409.647 -148.173C417.16 -109.065 446.605 -82.4808 479.114 -82.4808C484.336 -82.4808 489.639 -83.1653 494.939 -84.5955C513.497 -89.6001 529.3 -102.87 539.435 -121.955C549.569 -141.043 552.824 -163.662 548.598 -185.648C539.878 -231.037 501.613 -259.561 463.306 -249.225ZM532.118 -130.549C523.919 -113.777 510.701 -101.792 494.894 -96.8019C462.252 -86.4957 428.644 -109.57 419.949 -148.225C415.736 -166.953 417.929 -186.501 426.127 -203.272C434.326 -220.044 447.544 -232.029 463.352 -237.019C479.157 -242.009 495.657 -239.41 509.814 -229.698C523.969 -219.986 534.084 -204.323 538.296 -185.596C542.509 -166.868 540.316 -147.32 532.118 -130.549ZM510.704 -231.519C496.138 -241.515 479.157 -244.192 462.893 -239.053C446.628 -233.918 433.024 -221.585 424.589 -204.328C416.153 -187.069 413.895 -166.954 418.229 -147.681C425.737 -114.317 451.281 -92.2364 479.137 -92.2385C484.492 -92.2385 489.937 -93.0558 495.352 -94.7661C511.616 -99.9013 525.22 -112.234 533.655 -129.491C542.091 -146.75 544.349 -166.867 540.015 -186.138C535.678 -205.409 525.269 -221.526 510.704 -231.519ZM526.303 -138.008C519.785 -123.078 508.752 -112.047 495.234 -106.948C481.717 -101.849 467.331 -103.291 454.728 -111.013C442.125 -118.733 432.817 -131.807 428.512 -147.823C424.208 -163.84 425.428 -180.882 431.944 -195.813C438.459 -210.743 449.492 -221.774 463.009 -226.873C468.35 -228.887 473.759 -229.843 479.086 -229.843C501.598 -229.843 522.548 -212.736 529.732 -186C534.036 -169.984 532.818 -152.939 526.303 -138.008ZM504.334 -224.678C491.31 -232.659 476.44 -234.148 462.474 -228.88C448.502 -223.61 437.099 -212.211 430.365 -196.78C423.632 -181.349 422.372 -163.736 426.82 -147.183C431.268 -130.629 440.889 -117.119 453.913 -109.143C461.823 -104.296 470.408 -101.844 479.062 -101.844C484.659 -101.844 490.287 -102.872 495.774 -104.941C509.745 -110.211 521.148 -121.61 527.883 -137.041C534.617 -152.472 535.876 -170.087 531.428 -186.638C526.98 -203.192 517.358 -216.702 504.334 -224.678ZM495.562 -117.087C484.329 -111.885 472.061 -112.175 461.01 -117.906C449.964 -123.64 441.461 -134.125 437.072 -147.433C432.679 -160.743 432.926 -175.28 437.763 -188.369C442.601 -201.458 451.452 -211.532 462.685 -216.733C485.869 -227.475 512.113 -213.86 521.176 -186.387C530.241 -158.912 518.75 -127.825 495.562 -117.087ZM462.039 -218.696C450.362 -213.289 441.162 -202.818 436.135 -189.214C431.105 -175.609 430.851 -160.5 435.415 -146.666C439.978 -132.834 448.816 -121.936 460.299 -115.977C466.332 -112.847 472.715 -111.278 479.11 -111.278C484.884 -111.278 490.667 -112.558 496.207 -115.124C507.883 -120.531 517.084 -131.001 522.111 -144.606C527.141 -158.211 527.395 -173.319 522.833 -187.154C513.409 -215.709 486.134 -229.857 462.039 -218.696ZM495.868 -127.208C477.391 -116.27 454.846 -125.18 445.611 -147.071C436.379 -168.962 443.899 -195.672 462.376 -206.612C467.737 -209.784 473.439 -211.288 479.06 -211.288C492.813 -211.288 506.076 -202.29 512.632 -186.749C521.865 -164.858 514.344 -138.148 495.868 -127.208ZM461.583 -208.495C442.229 -197.037 434.352 -169.059 444.023 -146.127C450.889 -129.85 464.781 -120.426 479.186 -120.426C485.075 -120.426 491.05 -122.002 496.664 -125.325C506.04 -130.876 513.029 -140.419 516.344 -152.2C519.664 -163.978 518.908 -176.585 514.224 -187.693C504.552 -210.621 480.936 -219.956 461.583 -208.495ZM508.834 -160.233C507.328 -150.831 502.822 -142.686 496.146 -137.298C489.469 -131.91 481.42 -129.923 473.488 -131.71C465.55 -133.494 458.675 -138.831 454.128 -146.74C444.743 -163.07 448.318 -185.402 462.099 -196.523C467.177 -200.62 473.047 -202.749 479.06 -202.749C480.951 -202.749 482.859 -202.539 484.757 -202.111C492.695 -200.327 499.57 -194.99 504.118 -187.08C508.664 -179.169 510.34 -169.636 508.834 -160.233ZM485.089 -204.181C476.685 -206.064 468.166 -203.969 461.099 -198.263C446.507 -186.488 442.72 -162.845 452.66 -145.556C457.474 -137.179 464.754 -131.528 473.158 -129.639C475.168 -129.188 477.186 -128.963 479.19 -128.963C485.556 -128.965 491.771 -131.219 497.147 -135.558C504.216 -141.262 508.988 -149.885 510.581 -159.841C512.175 -169.796 510.401 -179.891 505.587 -188.264C500.772 -196.641 493.492 -202.292 485.089 -204.181ZM496.386 -147.317C487.269 -136.04 472.104 -135.655 462.584 -146.458C457.973 -151.69 455.359 -158.738 455.222 -166.302C455.084 -173.865 457.443 -181.042 461.859 -186.503C470.976 -197.78 486.14 -198.168 495.66 -187.363C500.27 -182.13 502.885 -175.083 503.022 -167.519C503.159 -159.955 500.802 -152.781 496.386 -147.317ZM460.574 -187.96C455.829 -182.092 453.297 -174.383 453.445 -166.257C453.592 -158.131 456.401 -150.558 461.356 -144.937C466.325 -139.296 472.723 -136.494 479.118 -136.494C485.879 -136.494 492.635 -139.631 497.671 -145.859C502.416 -151.727 504.948 -159.436 504.8 -167.563C504.653 -175.689 501.844 -183.261 496.889 -188.883C486.666 -200.486 470.376 -200.078 460.574 -187.96Z" fill="url(#paint0_radial_36655_23850)"/>
</g>
<defs>
<radialGradient id="paint0_radial_36655_23850" cx="0" cy="0" r="1" gradientUnits="userSpaceOnUse" gradientTransform="translate(479.122 -166.909) rotate(90) scale(498.939 421.122)">
<stop stop-color="white"/>
<stop offset="1" stop-color="white" stop-opacity="0"/>
</radialGradient>
<clipPath id="clip0_36655_23850">
<rect width="375" height="327" fill="white"/>
</clipPath>
</defs>
</svg>
